<svg width="1152" height="235" viewBox="0 0 1152 235" fill="none" xmlns="http://www.w3.org/2000/svg">
<rect x="-5" y="1" width="1154" height="234" fill="#333CC1"/>
<mask id="mask0" mask-type="alpha" maskUnits="userSpaceOnUse" x="694" y="0" width="233" height="233">
<rect x="694.411" y="0.559814" width="232.44" height="232.44" fill="#C4C4C4"/>
</mask>
<g mask="url(#mask0)">
<circle cx="690.261" cy="237.15" r="120.371" fill="#1D6AFF"/>
<circle cx="927.681" cy="-1.93061" r="120.371" fill="#FFD43C"/>
<circle cx="927.681" cy="237.15" r="120.371" fill="#FDA741"/>
<circle cx="690.261" cy="-1.93061" r="120.371" fill="#FDA741"/>
</g>
<rect x="926.544" y="0.974487" width="232.025" height="232.025" fill="#333CC1"/>
<path d="M926.544 0.974487H929.557C992.797 0.974487 1044.06 52.2406 1044.06 115.48H926.544V0.974487Z" fill="#FFD43C"/>
<path d="M1044.06 233C979.159 233 926.544 180.385 926.544 115.481H1044.06V233Z" fill="#FDA741"/>
<path d="M1158.57 0.974487C1095.33 0.974487 1044.06 52.2406 1044.06 115.48H1158.57V0.974487Z" fill="#FDA741"/>
<path d="M227.456 0.974487H224.443C161.203 0.974487 109.937 52.2406 109.937 115.48H227.456V0.974487Z" fill="#FDA741"/>
<path d="M112.95 0.974487H109.936C46.6965 0.974487 -4.56954 52.2406 -4.56954 115.48H112.95V0.974487Z" fill="#1D6AFF"/>
<path d="M1044.06 233C1107.3 233 1158.57 181.734 1158.57 118.494V115.481H1044.06V233Z" fill="#FFD43C"/>
<path d="M109.937 233C174.841 233 227.456 180.385 227.456 115.481H109.937V233Z" fill="#1D6AFF"/>
<path d="M-4.56934 233C60.3348 233 112.95 180.385 112.95 115.481H-4.56934V233Z" fill="#FFD43C"/>
<path d="M694.52 0.974487L459.481 233H694.52V0.974487Z" fill="#333CC1"/>
<path d="M224.443 0.974487L459.481 233H224.443V0.974487Z" fill="#1D6AFF"/>
<path d="M459.481 233L227.456 0.974686H459.481V233Z" fill="#FFD43C"/>
<path d="M459.481 233L694.52 0.974701H459.481V233Z" fill="#FDA741"/>
<circle r="45.1997" transform="matrix(-1 0 0 1 296.762 160.68)" fill="#FDA741"/>
</svg>
