<svg xmlns="http://www.w3.org/2000/svg" xmlns:xlink="http://www.w3.org/1999/xlink" viewBox="0 0 650 650"><defs><style>.cls-1{isolation:isolate;}.cls-2{fill:url(#Безымянный_градиент_263);}.cls-3{fill:url(#Безымянный_градиент_170);}.cls-4{fill:#fff;}.cls-5{fill:url(#Безымянный_градиент_271);}.cls-6{fill:url(#Безымянный_градиент_84);}.cls-7{fill:url(#Безымянный_градиент_3);}.cls-8{fill:url(#Безымянный_градиент_123);}.cls-9{fill:url(#Безымянный_градиент_39);}.cls-10{fill:url(#Безымянный_градиент_73);}.cls-11{fill:url(#Безымянный_градиент_139);}.cls-12{fill:url(#Безымянный_градиент_39-2);}.cls-13{fill:url(#Безымянный_градиент_271-2);}.cls-14{fill:url(#Безымянный_градиент_39-3);}.cls-15,.cls-26,.cls-27,.cls-28,.cls-29,.cls-30,.cls-31,.cls-32,.cls-35,.cls-48,.cls-50,.cls-51,.cls-58,.cls-59,.cls-66,.cls-86{fill:none;stroke-miterlimit:10;}.cls-15{stroke:url(#Безымянный_градиент_45);}.cls-16{fill:url(#Безымянный_градиент_39-4);}.cls-17{fill:url(#Безымянный_градиент_139-2);}.cls-18{fill:url(#Безымянный_градиент_123-2);}.cls-19{fill:url(#Безымянный_градиент_48);}.cls-20{fill:url(#Безымянный_градиент_123-3);}.cls-21{fill:url(#Безымянный_градиент_39-5);}.cls-22{fill:url(#Безымянный_градиент_39-6);}.cls-23{fill:url(#Безымянный_градиент_39-7);}.cls-24{fill:url(#Безымянный_градиент_39-8);}.cls-25{fill:url(#Безымянный_градиент_39-9);}.cls-26,.cls-27,.cls-28,.cls-29,.cls-30{stroke-width:2px;}.cls-26{stroke:url(#Безымянный_градиент_39-10);}.cls-27{stroke:url(#Безымянный_градиент_39-11);}.cls-28{stroke:url(#Безымянный_градиент_39-12);}.cls-29{stroke:url(#Безымянный_градиент_39-13);}.cls-30{stroke:url(#Безымянный_градиент_39-14);}.cls-31{stroke:url(#Безымянный_градиент_139-3);}.cls-32{stroke:#1f1844;}.cls-33{fill:url(#Безымянный_градиент_139-4);}.cls-34{fill:url(#Безымянный_градиент_39-15);}.cls-35{stroke:url(#Безымянный_градиент_39-16);}.cls-36{fill:#1f1844;}.cls-37{fill:url(#Безымянный_градиент_44);}.cls-38{fill:#bfc3db;}.cls-38,.cls-39{opacity:0.5;mix-blend-mode:multiply;}.cls-39{fill:#bbbfd9;}.cls-40{fill:url(#Безымянный_градиент_271-3);}.cls-41{fill:url(#Безымянный_градиент_48-2);}.cls-42{fill:url(#Безымянный_градиент_43);}.cls-43{fill:url(#Безымянный_градиент_271-4);}.cls-44{fill:url(#Безымянный_градиент_123-4);}.cls-45{fill:url(#Безымянный_градиент_87);}.cls-46{fill:url(#Безымянный_градиент_123-5);}.cls-47{fill:url(#Безымянный_градиент_123-6);}.cls-48,.cls-58,.cls-59{stroke:#fff;}.cls-49{fill:url(#Безымянный_градиент_39-17);}.cls-50{stroke:url(#Безымянный_градиент_139-5);}.cls-51{stroke:url(#Безымянный_градиент_39-18);}.cls-52{fill:#c8cce0;}.cls-53{fill:url(#Безымянный_градиент_41);}.cls-54{fill:#d5527e;}.cls-55{fill:url(#Безымянный_градиент_133);}.cls-56{fill:url(#Безымянный_градиент_130);}.cls-57{fill:url(#Безымянный_градиент_139-6);}.cls-58{stroke-width:0.68px;}.cls-59{stroke-width:0.65px;}.cls-60{fill:url(#Безымянный_градиент_5);}.cls-61{fill:url(#Безымянный_градиент_5-2);}.cls-62{fill:url(#Безымянный_градиент_33);}.cls-63{fill:url(#Безымянный_градиент_33-2);}.cls-64{fill:url(#Безымянный_градиент_33-3);}.cls-65{fill:url(#Безымянный_градиент_33-4);}.cls-66{stroke-width:0.98px;stroke:url(#Безымянный_градиент_33-5);}.cls-67{fill:url(#Безымянный_градиент_33-6);}.cls-68{fill:url(#Безымянный_градиент_33-7);}.cls-69{fill:url(#Безымянный_градиент_11);}.cls-70{fill:url(#Безымянный_градиент_123-7);}.cls-71{fill:url(#Безымянный_градиент_138);}.cls-72{fill:url(#Безымянный_градиент_269);}.cls-73{fill:url(#Безымянный_градиент_16);}.cls-74{fill:#cf507a;}.cls-75{fill:url(#Безымянный_градиент_123-8);}.cls-76{fill:url(#Безымянный_градиент_250);}.cls-77{fill:url(#Безымянный_градиент_123-9);}.cls-78{fill:url(#Безымянный_градиент_48-3);}.cls-79{fill:url(#Безымянный_градиент_123-10);}.cls-80{fill:url(#Безымянный_градиент_139-7);}.cls-81{fill:url(#Безымянный_градиент_123-11);}.cls-82{fill:url(#Безымянный_градиент_140);}.cls-83{fill:url(#Безымянный_градиент_48-4);}.cls-84{fill:#2d2e64;}.cls-85{fill:url(#Безымянный_градиент_139-8);}.cls-86{stroke-width:4.15px;stroke:url(#Безымянный_градиент_139-9);}.cls-87{fill:url(#Безымянный_градиент_139-10);}</style><linearGradient id="Безымянный_градиент_263" x1="7.41" y1="303.9" x2="633.92" y2="303.9" gradientUnits="userSpaceOnUse"><stop offset="0" stop-color="#f0f2f5"/><stop offset="0.99" stop-color="#f5f7f8"/></linearGradient><linearGradient id="Безымянный_градиент_170" x1="9.55" y1="217.97" x2="314.3" y2="217.97" gradientUnits="userSpaceOnUse"><stop offset="0.01" stop-color="#bbbfd9"/><stop offset="1" stop-color="#d6dbf8"/></linearGradient><linearGradient id="Безымянный_градиент_271" x1="619.4" y1="401.75" x2="491.9" y2="344.75" gradientUnits="userSpaceOnUse"><stop offset="0.01" stop-color="#bbbfd9"/><stop offset="0.29" stop-color="#cacde2"/><stop offset="0.84" stop-color="#f2f3f8"/><stop offset="1" stop-color="#fff"/></linearGradient><linearGradient id="Безымянный_градиент_84" x1="484.98" y1="391.33" x2="459.17" y2="375.65" gradientUnits="userSpaceOnUse"><stop offset="0.32" stop-color="#9c9c9c"/><stop offset="0.5" stop-color="#ababab"/><stop offset="0.86" stop-color="#d3d3d3"/><stop offset="0.91" stop-color="#d9d9d9"/></linearGradient><linearGradient id="Безымянный_градиент_3" x1="463.61" y1="395.78" x2="589.71" y2="395.78" gradientUnits="userSpaceOnUse"><stop offset="0.09" stop-color="#d9d9d9"/><stop offset="0.12" stop-color="#d6d6d6"/><stop offset="0.7" stop-color="#aeaeae"/><stop offset="1" stop-color="#9f9f9f"/></linearGradient><linearGradient id="Безымянный_градиент_123" x1="286.97" y1="361.58" x2="305.64" y2="361.58" gradientUnits="userSpaceOnUse"><stop offset="0" stop-color="#753200"/><stop offset="1" stop-color="#a04400"/></linearGradient><linearGradient id="Безымянный_градиент_39" x1="353.36" y1="388.85" x2="350.22" y2="361.3" gradientUnits="userSpaceOnUse"><stop offset="0" stop-color="#464b8b"/><stop offset="0.28" stop-color="#393c76"/><stop offset="0.74" stop-color="#27275a"/><stop offset="1" stop-color="#201f4f"/></linearGradient><linearGradient id="Безымянный_градиент_73" x1="330.12" y1="273.85" x2="380.59" y2="273.85" gradientUnits="userSpaceOnUse"><stop offset="0.09" stop-color="#e6e6e6"/><stop offset="1" stop-color="#dedede"/></linearGradient><linearGradient id="Безымянный_градиент_139" x1="259.39" y1="279.91" x2="340.83" y2="279.91" gradientUnits="userSpaceOnUse"><stop offset="0" stop-color="#201f4f"/><stop offset="0.26" stop-color="#27275a"/><stop offset="0.72" stop-color="#393c76"/><stop offset="1" stop-color="#464b8b"/></linearGradient><linearGradient id="Безымянный_градиент_39-2" x1="366.9" y1="279.8" x2="493.14" y2="279.8" xlink:href="#Безымянный_градиент_39"/><linearGradient id="Безымянный_градиент_271-2" x1="81.47" y1="373.71" x2="194.97" y2="333.71" xlink:href="#Безымянный_градиент_271"/><linearGradient id="Безымянный_градиент_39-3" x1="327.97" y1="221.47" x2="326.85" y2="198.85" xlink:href="#Безымянный_градиент_39"/><linearGradient id="Безымянный_градиент_45" x1="381.03" y1="368.59" x2="382.01" y2="368.45" gradientUnits="userSpaceOnUse"><stop offset="0" stop-color="#bdbdbd"/><stop offset="0.55" stop-color="#ccc"/><stop offset="0.91" stop-color="#d9d9d9"/></linearGradient><linearGradient id="Безымянный_градиент_39-4" x1="366.54" y1="199.59" x2="397.56" y2="199.59" xlink:href="#Безымянный_градиент_39"/><linearGradient id="Безымянный_градиент_139-2" x1="366.54" y1="198.09" x2="396.77" y2="198.09" xlink:href="#Безымянный_градиент_139"/><linearGradient id="Безымянный_градиент_123-2" x1="-1629.78" y1="272.04" x2="-1544.31" y2="232.48" gradientTransform="matrix(-0.99, 0.1, 0.1, 0.99, -1221.41, 64.69)" xlink:href="#Безымянный_градиент_123"/><linearGradient id="Безымянный_градиент_48" x1="-1541.15" y1="255.31" x2="-1571.37" y2="284.97" gradientTransform="matrix(-0.99, 0.1, 0.1, 0.99, -1221.41, 64.69)" gradientUnits="userSpaceOnUse"><stop offset="0" stop-color="#a04400"/><stop offset="1" stop-color="#753200"/></linearGradient><linearGradient id="Безымянный_градиент_123-3" x1="-1541.22" y1="234.21" x2="-1545.12" y2="238.04" gradientTransform="matrix(-0.99, 0.1, 0.1, 0.99, -1221.41, 64.69)" xlink:href="#Безымянный_градиент_123"/><linearGradient id="Безымянный_градиент_39-5" x1="332.57" y1="237.07" x2="339.38" y2="237.07" xlink:href="#Безымянный_градиент_39"/><linearGradient id="Безымянный_градиент_39-6" x1="331.88" y1="265.6" x2="338.68" y2="265.6" xlink:href="#Безымянный_градиент_39"/><linearGradient id="Безымянный_градиент_39-7" x1="329.18" y1="294.58" x2="335.98" y2="294.58" xlink:href="#Безымянный_градиент_39"/><linearGradient id="Безымянный_градиент_39-8" x1="325.78" y1="326.91" x2="332.58" y2="326.91" xlink:href="#Безымянный_градиент_39"/><linearGradient id="Безымянный_градиент_39-9" x1="320.67" y1="361.95" x2="327.47" y2="361.95" xlink:href="#Безымянный_градиент_39"/><linearGradient id="Безымянный_градиент_39-10" x1="370.46" y1="232.95" x2="378.49" y2="232.95" xlink:href="#Безымянный_градиент_39"/><linearGradient id="Безымянный_градиент_39-11" x1="373.1" y1="261.55" x2="381.14" y2="261.55" xlink:href="#Безымянный_градиент_39"/><linearGradient id="Безымянный_градиент_39-12" x1="377.03" y1="291.53" x2="385.31" y2="291.53" xlink:href="#Безымянный_градиент_39"/><linearGradient id="Безымянный_градиент_39-13" x1="379.54" y1="323.51" x2="387.82" y2="323.51" xlink:href="#Безымянный_градиент_39"/><linearGradient id="Безымянный_градиент_39-14" x1="383.44" y1="359.99" x2="392.03" y2="359.99" xlink:href="#Безымянный_градиент_39"/><linearGradient id="Безымянный_градиент_139-3" x1="379.07" y1="285.41" x2="403.45" y2="285.41" xlink:href="#Безымянный_градиент_139"/><linearGradient id="Безымянный_градиент_139-4" x1="315.89" y1="259.01" x2="316.78" y2="238.71" xlink:href="#Безымянный_градиент_139"/><linearGradient id="Безымянный_градиент_39-15" x1="315.89" y1="257.51" x2="316.78" y2="237.22" xlink:href="#Безымянный_градиент_39"/><linearGradient id="Безымянный_градиент_39-16" x1="302.15" y1="278.19" x2="331.64" y2="278.19" xlink:href="#Безымянный_градиент_39"/><linearGradient id="Безымянный_градиент_44" x1="319.05" y1="591.79" x2="319.05" y2="383.02" gradientUnits="userSpaceOnUse"><stop offset="0.31" stop-color="#fff"/><stop offset="0.44" stop-color="#ecedf4"/><stop offset="0.69" stop-color="#cacde2"/><stop offset="0.99" stop-color="#bbbfd9"/></linearGradient><linearGradient id="Безымянный_градиент_271-3" x1="395.43" y1="453.19" x2="403.43" y2="382.19" xlink:href="#Безымянный_градиент_271"/><linearGradient id="Безымянный_градиент_48-2" x1="510.14" y1="345.28" x2="488.47" y2="333.95" gradientTransform="matrix(1, 0, 0, 1, 0, 0)" xlink:href="#Безымянный_градиент_48"/><linearGradient id="Безымянный_градиент_43" x1="525.22" y1="420.46" x2="557.06" y2="420.46" gradientUnits="userSpaceOnUse"><stop offset="0" stop-color="#c2c2c2"/><stop offset="1" stop-color="#bdbdbd"/></linearGradient><linearGradient id="Безымянный_градиент_271-4" x1="459.57" y1="489.53" x2="485.81" y2="441.85" xlink:href="#Безымянный_градиент_271"/><linearGradient id="Безымянный_градиент_123-4" x1="555.37" y1="311.92" x2="503.7" y2="263.4" xlink:href="#Безымянный_градиент_123"/><linearGradient id="Безымянный_градиент_87" x1="510.06" y1="269.76" x2="528.73" y2="265.77" gradientUnits="userSpaceOnUse"><stop offset="0" stop-color="#a04400" stop-opacity="0"/><stop offset="0.18" stop-color="#9a4100" stop-opacity="0.14"/><stop offset="0.52" stop-color="#8a3b00" stop-opacity="0.52"/><stop offset="0.9" stop-color="#753200"/></linearGradient><linearGradient id="Безымянный_градиент_123-5" x1="489.49" y1="301.43" x2="499.33" y2="301.43" xlink:href="#Безымянный_градиент_123"/><linearGradient id="Безымянный_градиент_123-6" x1="540.17" y1="325.85" x2="490.45" y2="279.16" xlink:href="#Безымянный_градиент_123"/><linearGradient id="Безымянный_градиент_39-17" x1="338.35" y1="196.02" x2="321.68" y2="202.18" xlink:href="#Безымянный_градиент_39"/><linearGradient id="Безымянный_градиент_139-5" x1="331.08" y1="229.27" x2="340.75" y2="229.27" xlink:href="#Безымянный_градиент_139"/><linearGradient id="Безымянный_градиент_39-18" x1="367.28" y1="226.22" x2="379.72" y2="226.22" xlink:href="#Безымянный_градиент_39"/><linearGradient id="Безымянный_градиент_41" x1="234.38" y1="514.38" x2="361.88" y2="514.38" gradientUnits="userSpaceOnUse"><stop offset="0.01" stop-color="#bbbfd9"/><stop offset="0.77" stop-color="#cacde1"/><stop offset="1" stop-color="#d0d2e4"/></linearGradient><linearGradient id="Безымянный_градиент_133" x1="162.82" y1="537.76" x2="213.95" y2="526.01" gradientUnits="userSpaceOnUse"><stop offset="0" stop-color="#abaaea"/><stop offset="1" stop-color="#e7eefe"/></linearGradient><linearGradient id="Безымянный_градиент_130" x1="165.15" y1="518.78" x2="210.44" y2="518.78" gradientUnits="userSpaceOnUse"><stop offset="0" stop-color="#cdccff"/><stop offset="0.89" stop-color="#8988d5"/></linearGradient><linearGradient id="Безымянный_градиент_139-6" x1="136.94" y1="498.8" x2="188.64" y2="498.8" xlink:href="#Безымянный_градиент_139"/><linearGradient id="Безымянный_градиент_5" x1="177.29" y1="494.17" x2="158.14" y2="487.5" gradientUnits="userSpaceOnUse"><stop offset="0" stop-color="#1f1844"/><stop offset="0.99" stop-color="#3d3c99"/></linearGradient><linearGradient id="Безымянный_градиент_5-2" x1="181.02" y1="508.13" x2="158.05" y2="505.38" xlink:href="#Безымянный_градиент_5"/><linearGradient id="Безымянный_градиент_33" x1="1394.98" y1="1421.01" x2="1402.4" y2="1421.01" gradientTransform="translate(-1823.38 469.08) rotate(-45.37)" gradientUnits="userSpaceOnUse"><stop offset="0" stop-color="#e0e4eb"/><stop offset="0.99" stop-color="#f3f6fd"/></linearGradient><linearGradient id="Безымянный_градиент_33-2" x1="1625.76" y1="2413.52" x2="1633.25" y2="2413.52" gradientTransform="translate(-2627.62 1306.57) rotate(-72.22)" xlink:href="#Безымянный_градиент_33"/><linearGradient id="Безымянный_градиент_33-3" x1="-1566.33" y1="776.16" x2="-1558.9" y2="776.16" gradientTransform="matrix(0.63, 0.78, -0.78, 0.63, 1775.7, 1194.77)" xlink:href="#Безымянный_градиент_33"/><linearGradient id="Безымянный_градиент_33-4" x1="-1809.45" y1="847.73" x2="-1801.84" y2="847.73" gradientTransform="matrix(0.5, 0.87, -0.77, 0.45, 1744.77, 1672.18)" xlink:href="#Безымянный_градиент_33"/><linearGradient id="Безымянный_градиент_33-5" x1="628.94" y1="618.74" x2="639.87" y2="618.74" gradientTransform="translate(-577.25 35.98) rotate(-13.38)" xlink:href="#Безымянный_градиент_33"/><linearGradient id="Безымянный_градиент_33-6" x1="1762.7" y1="2957.61" x2="1770.48" y2="2957.61" gradientTransform="matrix(0.04, -0.93, 1, 0.04, -2871, 2025.38)" xlink:href="#Безымянный_градиент_33"/><linearGradient id="Безымянный_градиент_33-7" x1="-1986.85" y1="1034.94" x2="-1978.43" y2="1034.94" gradientTransform="matrix(0.35, 0.94, -0.74, 0.28, 1646.86, 2073.32)" xlink:href="#Безымянный_градиент_33"/><linearGradient id="Безымянный_градиент_11" x1="186.77" y1="441.91" x2="181.15" y2="464.88" gradientUnits="userSpaceOnUse"><stop offset="0" stop-color="#e6eaf1"/><stop offset="0.99" stop-color="#f3f6fd"/></linearGradient><linearGradient id="Безымянный_градиент_123-7" x1="524.52" y1="320.93" x2="577.88" y2="302.77" xlink:href="#Безымянный_градиент_123"/><linearGradient id="Безымянный_градиент_138" x1="175.91" y1="322.52" x2="189.04" y2="250.54" gradientUnits="userSpaceOnUse"><stop offset="0.38" stop-color="#201f4f"/><stop offset="0.54" stop-color="#27275a"/><stop offset="0.83" stop-color="#393c76"/><stop offset="1" stop-color="#464b8b"/></linearGradient><linearGradient id="Безымянный_градиент_269" x1="281.7" y1="492.91" x2="398.22" y2="492.91" gradientUnits="userSpaceOnUse"><stop offset="0" stop-color="#fff"/><stop offset="0.16" stop-color="#f2f3f8"/><stop offset="0.71" stop-color="#cacde2"/><stop offset="0.99" stop-color="#bbbfd9"/></linearGradient><linearGradient id="Безымянный_градиент_16" x1="240.46" y1="397.02" x2="247.46" y2="361.27" gradientUnits="userSpaceOnUse"><stop offset="0.11" stop-color="#8988d5"/><stop offset="0.56" stop-color="#9d9ce8"/><stop offset="1" stop-color="#a7a5ee"/></linearGradient><linearGradient id="Безымянный_градиент_123-8" x1="216.94" y1="427.64" x2="259.42" y2="427.64" xlink:href="#Безымянный_градиент_123"/><linearGradient id="Безымянный_градиент_250" x1="138.14" y1="376.07" x2="232.78" y2="376.07" gradientUnits="userSpaceOnUse"><stop offset="0" stop-color="#a7a5ee"/><stop offset="0.44" stop-color="#9d9ce8"/><stop offset="0.89" stop-color="#8988d5"/></linearGradient><linearGradient id="Безымянный_градиент_123-9" x1="129.44" y1="275.62" x2="205.1" y2="240.6" xlink:href="#Безымянный_градиент_123"/><linearGradient id="Безымянный_градиент_48-3" x1="-2126.98" y1="712.6" x2="-2153.97" y2="739.09" gradientTransform="matrix(-0.98, 0.21, 0.21, 0.98, -2066.39, 50.94)" xlink:href="#Безымянный_градиент_48"/><linearGradient id="Безымянный_градиент_123-10" x1="-2127.04" y1="693.76" x2="-2130.53" y2="697.18" gradientTransform="matrix(-0.98, 0.21, 0.21, 0.98, -2066.39, 50.94)" xlink:href="#Безымянный_градиент_123"/><linearGradient id="Безымянный_градиент_139-7" x1="124.07" y1="278.46" x2="240.09" y2="278.46" xlink:href="#Безымянный_градиент_139"/><linearGradient id="Безымянный_градиент_123-11" x1="218.44" y1="297.89" x2="154.81" y2="283.71" xlink:href="#Безымянный_градиент_123"/><linearGradient id="Безымянный_градиент_140" x1="201.06" y1="255.98" x2="165.31" y2="272.98" gradientUnits="userSpaceOnUse"><stop offset="0.1" stop-color="#753200"/><stop offset="0.48" stop-color="#8a3b00" stop-opacity="0.52"/><stop offset="0.82" stop-color="#9a4100" stop-opacity="0.14"/><stop offset="1" stop-color="#a04400" stop-opacity="0"/></linearGradient><linearGradient id="Безымянный_градиент_48-4" x1="158.2" y1="294.81" x2="191.2" y2="313.14" gradientTransform="matrix(1, 0, 0, 1, 0, 0)" xlink:href="#Безымянный_градиент_48"/><linearGradient id="Безымянный_градиент_139-8" x1="97.55" y1="497.59" x2="97.55" y2="471.06" xlink:href="#Безымянный_градиент_139"/><linearGradient id="Безымянный_градиент_139-9" x1="86.09" y1="478" x2="86.09" y2="392.13" xlink:href="#Безымянный_градиент_139"/><linearGradient id="Безымянный_градиент_139-10" x1="1484.61" y1="1077.92" x2="1484.61" y2="1034.1" gradientTransform="matrix(0.73, -0.69, 0.69, 0.73, -1695.56, 640.99)" xlink:href="#Безымянный_градиент_139"/></defs><title>1</title><g class="cls-1"><g id="Слой_3" data-name="Слой 3"><path class="cls-2" d="M564.64,337.58c-64.38,32.92-40,70.4-27.19,109.93,9.76,30.07,12.85,61.34-34.86,92.7L51.88,536.78c-21.55-24.88-41.82-50.45-44-81.1-3-42.1,8-84,20.91-110.46C83.82,232.75,241.18,68,445.64,67.59,659,67.15,679.64,278.76,564.64,337.58Z"/><rect class="cls-3" x="9.55" y="113.34" width="304.74" height="209.26" rx="11.07" ry="11.07"/><rect class="cls-4" x="18.22" y="122.32" width="287.41" height="191.31" rx="6.61" ry="6.61"/><path class="cls-5" d="M557.06,298l59.59,15.28a32.18,32.18,0,0,1,22.26,42.13L597.45,469.91,455.83,416.4,513,291Z"/><path class="cls-6" d="M482.8,344.61a126.64,126.64,0,0,0-15,27.8c-6,15.83-23.39,39.69-23.39,39.69l19.18,7.25S481,389.82,482.8,382.4,482.8,344.61,482.8,344.61Z"/><path class="cls-7" d="M463.61,419.34l69.08,26.1,41.85,15.81s14-1.77,15-10.27-3-81.5-11.75-98-30.5-20.42-30.5-20.42-16.75,13.17-26.75,12-6.58-12-6.58-12l-10.92-2.26-12.65,2.4-7.61,11.9Z"/><path class="cls-8" d="M287,356.73s7,20.84,15.09,19.5c0-4.67,3.58-17.69,3.58-17.69l-4.81-11.68Z"/><polygon class="cls-9" points="305.2 349.07 299.64 382.4 406.61 393.19 402.03 351 305.2 349.07"/><path class="cls-10" d="M380.59,360c-3.72.54-39.95.15-50.47-1.44,1.63-11.56,9.58-68.45,10.19-89.26.3-10.28.6-23.42.5-34.92l0-2c0-.58,0-1.16,0-1.73,0-.18,0-.36,0-.54,0-.38,0-.76,0-1.13,0-.9-.05-1.78-.08-2.65s0-1.61-.08-2.39q-.11-2.34-.24-4.44c0-.5-.07-1-.11-1.47l-.06-.77c0-.26,0-.5-.07-.75s0-.6-.09-.89,0-.44-.07-.66q-.1-1-.24-1.83c0-.16,0-.31-.07-.47-.12-.76-.25-1.44-.4-2l-.18-.69q-.07-.25-.15-.48a2.85,2.85,0,0,0-.16-.44,3.18,3.18,0,0,0-.17-.37.48.48,0,0,0-.08-.16.6.6,0,0,0-.09-.15h0l-2.24-20.76a23.62,23.62,0,0,1,2.39,0s21.66.47,30.61.1c1.74,5.47,3.63,12.86,2.08,15.34-2.32,3.69-6.49,4.33-3.81,12h0a3,3,0,0,0-.13.32,3.58,3.58,0,0,0-.11.35c0,.12-.07.25-.1.38l-.09.4C365.65,223,380.41,358.39,380.59,360Z"/><path class="cls-11" d="M340.31,269.28c-.61,20.81-10,88.37-11.67,99.93a166.72,166.72,0,0,1-28.53-6.81l-.47-105-10.46,26.09L302.07,346l-18.26,13c-9.37,3.52-25.24-61.18-24.38-75.77.84-14.36,27.63-67.73,36.63-78.15,5.45-6.31,19.86-11.41,30.38-14.45L316,217.73s8.87,2.64,10.93-2,7.15-10,10.94-8a.8.8,0,0,1,.19.13,1.29,1.29,0,0,1,.19.21,1.91,1.91,0,0,1,.15.21h0a.6.6,0,0,1,.09.15.48.48,0,0,1,.08.16,3.18,3.18,0,0,1,.17.37,4.5,4.5,0,0,1,.16.44q.07.22.15.48l.18.69c.14.6.27,1.28.4,2,0,.16.05.31.07.47.08.58.17,1.19.24,1.83,0,.22.05.44.07.66l.09.89c0,.25,0,.49.07.75l.06.77c0,.48.07,1,.11,1.47q.14,2.1.24,4.44c0,.78.06,1.57.08,2.39s0,1.75.08,2.65c0,.37,0,.75,0,1.13,0,.18,0,.36,0,.54l0,1.73,0,2C340.91,245.86,340.61,259,340.31,269.28Z"/><path class="cls-12" d="M492.73,329.07,482,345.9a3.57,3.57,0,0,1-5.26.84l-49.49-40.51-25.58-36.46L407.88,361s.49,3.62-26.37,7.52c-.18-1.6-15.87-145.49-14.54-152.12l.09-.4c0-.13.06-.26.1-.38a3.58,3.58,0,0,1,.11-.35,3,3,0,0,1,.13-.32h0a2.9,2.9,0,0,1,.21-.47,1.84,1.84,0,0,1,.13-.24l.18-.29a1.85,1.85,0,0,1,.19-.27,1.37,1.37,0,0,1,.2-.22.05.05,0,0,1,0,0,1.44,1.44,0,0,1,.22-.21,2.12,2.12,0,0,1,.23-.19,2.52,2.52,0,0,1,.68-.4l.26-.1a2.94,2.94,0,0,1,.82-.18,4.2,4.2,0,0,1,.5,0,7.42,7.42,0,0,1,3.25.89l-3.09-6.78,23.84,4.46-11.61-19.78c11.77,5.12,27.23,15.08,30.86,25.31,5.33,15,33.24,66.82,33.24,66.82l44.79,42.6A2.58,2.58,0,0,1,492.73,329.07Z"/><path class="cls-13" d="M95.47,294c-18.7,6.43-32.22,31.34-24.71,54.71L95,424.07l134.2-27.66L169.59,285.07Z"/><path class="cls-14" d="M339.38,213.27a1.91,1.91,0,0,0-.15-.21,1.29,1.29,0,0,0-.19-.21.8.8,0,0,0-.19-.13c-3.79-2-8.87,3.33-10.94,8s-11.93-3-11.93-3l11.46-22.13,1.2-3.1,8.42-7.6,0,8.44,1.29,14.95Z"/><path class="cls-15" d="M381.52,368.52h0"/><path class="cls-16" d="M374.85,210.07l1.27,4.87c-2.77-.94-6.08-2-7.77,0a.05.05,0,0,0,0,0,4.47,4.47,0,0,0-.91,1.49c-2.68-7.64,1.49-8.28,3.81-12,1.55-2.48-.34-9.87-2.08-15.34-1.16-3.61-2.24-6.38-2.24-6.38l10.91,1.45,5.64,8.39,13.84,19a1.43,1.43,0,0,1-1.41,2.24Z"/><path class="cls-17" d="M373.31,208.29l1,4.89a7.42,7.42,0,0,0-3.25-.89,4.2,4.2,0,0,0-.5,0,2.94,2.94,0,0,0-.82.18l-.26.1a2.52,2.52,0,0,0-.68.4,2.12,2.12,0,0,0-.23.19,1.44,1.44,0,0,0-.22.21.05.05,0,0,0,0,0,1.37,1.37,0,0,0-.2.22,1.85,1.85,0,0,0-.19.27l-.18.29a1.84,1.84,0,0,0-.13.24,2.9,2.9,0,0,0-.21.47c-2.68-7.64,1.49-8.28,3.81-12,1.55-2.48-.34-9.87-2.08-15.34-1.16-3.61-2.24-6.38-2.24-6.38l10.91,1.45,5.64,8.39,13.1,19.48a1.31,1.31,0,0,1-1.34,2Z"/><path class="cls-18" d="M337,191.77c.14-2.36.6-8.42.82-15.48.15-4.89.29-9.95.41-13.85,0-.34,0-.67,0-1a49.59,49.59,0,0,0-.16-6.34c-.09-.13-.18-.25-.26-.38-7.53-10.7-7.21-18.26-3.07-21.22a6.91,6.91,0,0,1,1.78-.91h0s-3.24-14.26,1.46-26.5c6.21-16.21,28.4-18.66,42.36-16.11s27.5,17.65,24.4,33.16c-1.23,6.16-3.46,11.89-3.58,17.41s3,14.36-.25,23.66c-4.7,13.34-18.09,18.15-26.5,19a27,27,0,0,1-3.23.12l-.14,2.32-.11,1.89-.12,2c-.27,4.6-.72,5.68-.72,5.68A15,15,0,0,1,354.73,205C342.7,204.33,336.7,197.48,337,191.77Z"/><path class="cls-19" d="M338.25,162.43c9.14,16.63,22.51,22.58,32.71,25.09l.11-1.89.14-2.32c-9.73-4.1-21-12.41-33.36-28.58.08.13.17.25.26.38a49.59,49.59,0,0,1,.16,6.34C338.26,161.77,338.26,162.09,338.25,162.43Z"/><path class="cls-20" d="M341.45,139.49s-2.83-4.21-5-1.17.87,8.49.87,8.49Z"/><circle class="cls-21" cx="335.97" cy="237.07" r="3.4"/><circle class="cls-22" cx="335.28" cy="265.6" r="3.4"/><circle class="cls-23" cx="332.58" cy="294.58" r="3.4"/><circle class="cls-24" cx="329.18" cy="326.91" r="3.4"/><circle class="cls-25" cx="324.07" cy="361.95" r="3.4"/><line class="cls-26" x1="370.64" y1="233.67" x2="378.31" y2="232.23"/><line class="cls-27" x1="373.29" y1="262.27" x2="380.95" y2="260.84"/><line class="cls-28" x1="377.12" y1="291.89" x2="385.22" y2="291.18"/><line class="cls-29" x1="379.63" y1="323.86" x2="387.74" y2="323.15"/><line class="cls-30" x1="383.68" y1="361" x2="391.79" y2="358.98"/><polyline class="cls-31" points="403.31 352.07 394.97 354.57 379.63 225.07 399.97 225.07 397.56 215.72"/><line class="cls-32" x1="278.01" y1="345.83" x2="298.06" y2="332.73"/><line class="cls-32" x1="467.82" y1="335.02" x2="479.81" y2="316.6"/><polygon class="cls-33" points="304.59 245.7 328.64 246.73 327.74 253.35 315.05 257.4 303.97 252.35 304.59 245.7"/><polygon class="cls-34" points="304.59 244.2 328.64 245.23 327.74 251.86 315.05 255.9 303.97 250.86 304.59 244.2"/><path class="cls-35" d="M302.65,200l2.92,29.88,25.54-.24c-3.31,64.84-4.31,71.44-10.31,126.27l-15-3.37"/><path class="cls-36" d="M349.93,143.4l-.55,3.8c8.63,4.92,26,19.05,29.69,19.63,4.72.73,6.3-4.74,8.84-3.47s2.17,4.57,3.94,4.57c.92,0,7.86-3.9,9.84-6.27,0,0-2.4,7.83-3.06,9.46-1.52,3.79-12,13.29-12,13.29a4.35,4.35,0,0,1-3.46,1.12l-11.14-1.25-5.6-3.23c-7.8-4.17-23.55-20.62-23.62-22.86a54,54,0,0,1,1.27-12.44Z"/><path class="cls-37" d="M630.2,482.09C607.08,609.55,298,594.95,170.3,583.78,101,577.71,15.1,551.31,8,456.6q0-.46-.07-.92V441.87L339.37,372.4Z"/><ellipse class="cls-38" cx="183.4" cy="534.18" rx="30.81" ry="15.44"/><ellipse class="cls-38" cx="93.16" cy="479.22" rx="30.81" ry="15.44"/><polygon class="cls-39" points="352.43 446.4 349.51 448.9 455.83 495.78 530.64 460.2 352.43 446.4"/><polygon class="cls-40" points="339.56 362.53 352.43 441.87 457.97 484.73 441.33 395.48 339.56 362.53"/><path class="cls-41" d="M482.8,344.61s3.68,5.29,6.68,7.29,7.67,6.69,8.33,9.1,5.33-2.26,2.17-7.26-6.83-8-5.83-10,10.17-12.17,19.83-11.17,2-8.5-2.33-8.5-20,6.68-20,6.68Z"/><path class="cls-42" d="M555.56,395.48l1.5,40.75-24.36,9.21-7.47-2.82,25.58-9.13S554.31,396,555.56,395.48Z"/><polygon class="cls-43" points="457.97 484.73 530.64 454.4 445.96 420.28 457.97 484.73"/><path class="cls-44" d="M545.77,271.52c-2.09,4.43-7.39,9.14-7.57,10.57h0c-2.19,4.55-7.08,14.47-10.3,19.41-4.26,6.54-17,7.62-21.6,1.21s-15-14.38-15-14.38-5.72-4.8-5.17-7.35,12.36-6.71,13.18-11.88c.38-2.37-.3-4.68-.82-7.1-.61-2.84-1-5.84.76-9.31l0-.09c1-2,5.05-2.09,10.34-1.09,1.38.25,2.84.59,4.36,1h0c11.51,2.95,26.19,9.23,30.68,12.39C547.1,266.58,547,269,545.77,271.52Z"/><path class="cls-45" d="M551.77,268.53l-7.69,13.32L532.94,279l-3.31-11.64-24-6.26-7.1.95c-.61-2.84-1-5.84.76-9.31l10.38-1.18,4.36,1h0l27.78,6.21Z"/><path class="cls-36" d="M547.46,288.22c-3.49.87-7.93,2.84-10,6.81a18.11,18.11,0,0,0-1.82,10.5c-.3-.12-.48-.21-.48-.21s-4.36,14.7-8.44,18.06c-1.92,1.58-9.53,1.66-17.55,1-9.06-.69-18.66-2.28-21.12-3.57-4.63-2.45-2.45-10.62,0-13.89a9.76,9.76,0,0,0,1.44-2.85c3.57,1.38,8.84,3.08,9.73,1.49,1-1.84-5.35-6.61-9.73-9a4.3,4.3,0,0,0-.62-1.1c-1.91-2.45,2.45-7.18,2.45-7.18s10.35,8,15,14.38,17.34,5.33,21.6-1.21c3.22-4.94,8.11-14.86,10.3-19.41,0,.23,0,.35,0,.35S542.73,287,547.46,288.22Z"/><path class="cls-46" d="M499.22,305.59c-.88,1.59-6.15-.11-9.73-1.49a11.41,11.41,0,0,0,0-7.48C493.87,299,500.24,303.75,499.22,305.59Z"/><path class="cls-47" d="M551,302.72a7.61,7.61,0,0,1-2.58,3.06c-.23,1.37-.54,3.25-.85,5.42l-.64,4.68c-.76,6-1.34,12.8-.83,16.76,1.09,8.35-28,17.61-33.76,14.62-4-2.11-3.87-13.07-3.42-19.38.1-1.46.22-2.67.3-3.46,8,.62,15.63.54,17.55-1a13.87,13.87,0,0,0,2.86-3.91,88.89,88.89,0,0,0,5.58-14.15s-.08-7,1.64-10.34a16.06,16.06,0,0,1,9.8-7.63c.16,0,2,0,2.18,0C553.68,288.34,555,294.43,551,302.72Z"/><path class="cls-36" d="M517.5,217l-.42,1.93-4-1.31-1,.84-1.15-.1V217l-11.61-1.67v2.2l-5-.94s-1.15,2-1.57,1.52a.54.54,0,0,0-.84,0V219l9,1.88-.42,2.3,5.23.94s3.24-1.25,3.08,0-3.92.56-4.65.56-.73,2.06-.73,2.06-2.93-.63-3.35-.63-.21.63-2.09.63-2.09-1-2.09-1l-8.57-.21v1.25s-4.91-.21-5.44.84,6.69,0,6.69,0v1.36l3.45.84s-7.63,4-9.52,7.32a1.38,1.38,0,0,1,1,.35s-4.32,3.59-3,7.67c.77-1.12,1.12-1.57,1.12-1.57l7.28.94-.52,1.71-7.22,1.57,0,2s-5.16.66-4.84,2.75,6.59-.63,6.59-.63a3.63,3.63,0,0,0,.63,2.51c-.63,1.29-4.71,7.74-4.71,7.74h1.36s-3.24,6-2.41,9.2a52.7,52.7,0,0,1,4.81-10.14h.63l6-6.8,17.53,2.41,17.36-18,2.37-20.19Zm-13.85,23.42-6.17.52-.78-1.88s-8.78,1.31-9.2.78,0,1.67,0,1.67l-5.39-.37,3.29-4.39,1,.78,5.06-2.62,2.2-1.14.26,1.36L491,236l-1,.47.26,1.52,7.53-1.15.16.73H497s.63,1.46,1,1.46,7.74-.37,7.74-.37Z"/><path class="cls-36" d="M559.28,235.66l-1.93.45-.52-4.15-1.2-.59-.4-1.08,1.23-.58L553,218.51l-2,.94-1.3-4.94s-2.29-.19-2-.77a.54.54,0,0,0-.36-.76l-.8.38,2.16,8.93-2.26.61,1.39,5.13s2.52,2.39,1.32,2.79-2.19-3.3-2.5-4-2.17.22-2.17.22-.69-2.91-.87-3.29-.66.08-1.46-1.62,0-2.34,0-2.34L538.66,212l-1.13.54s-1.92-4.53-3.09-4.55,2.87,6,2.87,6l-1.23.58.72,3.48s-6.86-5.19-10.69-5.45a1.38,1.38,0,0,1,.12,1.06s-5.1-2.36-8.2.61c1.34.21,1.9.33,1.9.33l2.28,7-1.77.26L515.93,216l-1.78.81s-2.81-4.38-4.57-3.19,3.39,5.68,3.39,5.68a3.63,3.63,0,0,0-2,1.64c-1.43,0-9-.93-9-.93l.58,1.23s-6.77-.37-9.34,1.78a52.7,52.7,0,0,1,11.23,0l.27.57,8.7,2.47,13.44,20.28,15.65,4.53,19.25-6.52Zm-27.1-2.46-3.12-5.35,1.36-1.52s-4.95-7.37-4.66-8-1.51.72-1.51.72l-2-5,5.38,1.09-.28,1.23,4.54,3.45,2,1.5-1.12.82L530.69,220l-.87-.74-1.26.89,4.27,6.31-.59.46-.4-.85s-1.05,1.19-.9,1.53,3.65,6.83,3.65,6.83Z"/><path class="cls-36" d="M550.68,233.06l4.69-1.81,1,1.81s5.73-1.6,6.57-.9.63,1.32.63,1.32l6.67.83-.73.94s2.08,1.56,1.77,1.56a26.19,26.19,0,0,0-2.81.42,16.66,16.66,0,0,1-2.29,0l-.52,1-1.67.52s4.38.21,4.9,1.77,6.88,1.15,6.36,2.4a3.47,3.47,0,0,1-1.25,1.67s5.11,1.46,4.9,2.19-1.67,1-1.67,1l-3-.42a2.6,2.6,0,0,0,.1,2,17.47,17.47,0,0,0,3.34,2.29l-.1,1s2.19,1.36,2,2.29l-.21.94s2.4,2.5,2.29,3.13-1.56.73-1.56.73.1.94-.52,1a3.7,3.7,0,0,1-1.67-.42l-1.36.43L575,259.64s5.21,7.51,4.07,7.92l-1.15.42s3.44,6.67,1.77,6.67-2-.45-2-.45L576,270l-1.56.52L572.37,267l-6.2.21-4.43-9Z"/><path class="cls-36" d="M560.53,246.52c-.85-.43,0-2.56.85-3.85a5.93,5.93,0,0,0,.88-1.56c-.68.82-1.11,1.38-1.11,1.38s-.24-3.06-.39-6a9.51,9.51,0,0,1-1.51-.24c-9.17-1.83-17.54-4.63-26.08-6.62a1.87,1.87,0,0,1-.66-.15,85.66,85.66,0,0,0-13.89-2.11c-1.07,10.22-6.58,20.12-11.92,29.32,7.51,2.3,21,6,21,6l19.74,4.93-20.23-2.52-1,4.95,13.57,3.3-4.28,14.22,6,2.15s4.73-3.73,8.17-.84,2.1,12-2.21,17.31a41,41,0,0,1-.86,9.58s13.42-23.91,18.86-29.43,7.2-12.44,7.26-15.31c0-1.84,2.24-5.28,4.17-8.08C571,258,567,251.52,560.53,246.52Z"/><path class="cls-48" d="M340.83,207.29s12.72,6.56,23.22.7"/><path class="cls-49" d="M338.38,208.28a1.91,1.91,0,0,0-.15-.21,1.29,1.29,0,0,0-.19-.21.8.8,0,0,0-.19-.13c-3.79-2-8.87,3.33-10.94,8s-10.93,2-10.93,2l6.74-28.19,15.13-10.14L337,192.54Z"/><line class="cls-50" x1="331.11" y1="229.59" x2="340.72" y2="228.94"/><line class="cls-51" x1="379.63" y1="225.07" x2="367.38" y2="227.38"/><polygon class="cls-52" points="457.97 484.73 457.97 490.45 530.64 460.2 530.64 454.4 457.97 484.73"/><polygon class="cls-52" points="457.97 490.45 352.43 446.4 352.43 441.87 457.97 484.73 457.97 490.45"/><circle class="cls-4" cx="387.74" cy="420.46" r="9.04"/><path class="cls-48" d="M503.63,339.79s1.08,11.22,7.5,13.25c10.25,3.25,35.47-10.18,35.47-10.18"/><polygon class="cls-53" points="361.88 523.73 279.38 539.56 234.38 497.73 285.35 489.2 300.88 517.73 349.81 514.38 361.88 523.73"/><polygon class="cls-54" points="364.2 521.41 281.7 537.24 236.7 495.41 287.67 486.88 303.2 515.41 352.13 512.06 364.2 521.41"/><path class="cls-55" d="M214.29,529.3c0,11.23-11.86,20.32-26.49,20.32s-26.5-9.1-26.5-20.32a16.9,16.9,0,0,1,3.86-10.57v.05c0,3,10.14,5.39,22.65,5.39s22.65-2.41,22.65-5.39v0A16.86,16.86,0,0,1,214.29,529.3Z"/><path class="cls-56" d="M210.44,518.74v0c0,3-10.14,5.39-22.65,5.39s-22.65-2.41-22.65-5.39v-.05c0-.77.74-1.5,2-2.17h0c3.55-1.87,11.46-3.17,20.65-3.17s17.09,1.3,20.65,3.17h0C209.7,517.22,210.41,518,210.44,518.74Z"/><path class="cls-57" d="M188.64,521.08c-.91,0-2.06,0-3.37-.13l-.23,0c-6.8-.57-17.9-3.09-24.58-13.3a29.23,29.23,0,0,1-1.88-3.33A34.78,34.78,0,0,1,156,497c-2.32-9.91-14.83-16.68-19.1-17.71,1.44-5.14,19.46-2.82,30.53,3.85a20.23,20.23,0,0,1,7.36,6.9h0l1.38,5.9a35.06,35.06,0,0,0,2.47,9.41,46.43,46.43,0,0,0,2.12,4.5,57.86,57.86,0,0,0,5.22,8.06C187.57,519.94,188.64,521.08,188.64,521.08Z"/><path class="cls-58" d="M184.26,518.78s-13.82-8.06-16.47-19-11.11-18.39-19.86-19.39"/><path class="cls-54" d="M188.64,521.07s-7.76-31.59,1.52-39.78,22.65-11.22,34.13-5c-13.85.83-17.71,10.28-16.8,18.88C208.31,503,197.92,523.25,188.64,521.07Z"/><path class="cls-59" d="M188.64,521.07c14.32-12.77-8.5-33.24,25.65-45.61"/><path class="cls-60" d="M176.22,496c-5.49,1-19.81-4.77-19.52-8.8.27-3.69,12.09-.85,18.14,2.9h0Z"/><path class="cls-61" d="M180.81,509.89c-3.81,1.79-15.39.33-20.36-2.26-1.28-.66-2.11-1.4-2.27-2.17a1.17,1.17,0,0,1,.4-1.15c2.38-2.22,14.2-1.32,20.11,1.09A46.43,46.43,0,0,0,180.81,509.89Z"/><path class="cls-62" d="M163.24,461.42c2.58-4.37,21.09,13.65,17.85,17.6S160.78,465.58,163.24,461.42Z"/><path class="cls-63" d="M158.19,486.13c.37-5.09,22.72,2.23,21.57,7.25S157.83,491,158.19,486.13Z"/><path class="cls-64" d="M199.64,463.61c4,3.1-15.59,19.93-19.07,16.2S195.87,460.65,199.64,463.61Z"/><path class="cls-65" d="M197.78,485.13c3.33,3.76-15.54,13.22-18.38,9S194.61,481.55,197.78,485.13Z"/><path class="cls-66" d="M180.86,460a147.18,147.18,0,0,1-1.16,24.38c-1.73,11.36,2.63,30.59,9.71,36.74"/><path class="cls-67" d="M158.18,504.56c-1-4.67,23.66-2,23.87,2.82S159.11,509,158.18,504.56Z"/><path class="cls-68" d="M198.66,496.93c2.55,4.32-15.1,15.1-17.15,10.39S196.22,492.82,198.66,496.93Z"/><path class="cls-69" d="M187.11,441.27c5,.36-1.46,25.42-6.38,24.26S182.37,440.93,187.11,441.27Z"/><path class="cls-70" d="M547.46,306.23l-.58,9.64,0,.08-.35.91c-13.78,11.08-27.42,12.17-37.63,11,.1-1.46.22-2.67.3-3.46,8,.62,15.63.54,17.55-1a13.87,13.87,0,0,0,2.86-3.91A37.11,37.11,0,0,0,547.46,306.23Z"/><path class="cls-71" d="M205.17,248.77c-24-21-57,3.87-63,30.87-1.74,7.31-3.42,18.55-4.83,29.64-2.25,17.72,53,12.31,53.68,12.87s3.7,8,11.65,10.92C230.54,314,225.68,268.35,205.17,248.77Z"/><polygon class="cls-38" points="396.77 511.8 350.68 514.95 301.75 518.3 286.22 489.77 280.25 478.8 353.25 473.3 396.77 511.8"/><polygon class="cls-72" points="398.22 508.91 352.13 512.06 303.2 515.41 287.67 486.88 281.7 475.91 354.7 470.41 398.22 508.91"/><path class="cls-73" d="M229.95,386.82l1.78,9.07,28.11-2.7,28.47-9.12-36.49-6.65s-20-36.55-28.34-49c-2.63-3.94-10.46-4.92-13.66-6.34Z"/><polygon class="cls-38" points="234.73 448.83 334.73 448.83 335.08 443.97 236.63 441.09 234.73 448.83"/><polygon class="cls-74" points="236.31 446.4 336.31 446.4 336.66 441.54 236.6 441.54 236.31 446.4"/><polygon class="cls-54" points="239.97 386.4 236.6 441.54 336.66 441.54 340.64 386.4 239.97 386.4"/><path class="cls-75" d="M222.4,418.69s-3.26,1.37-4.42,2.87l-1,12.45s7.75,4.29,13.56,6a62.91,62.91,0,0,0,11,1.59c4.7.36,10.82.76,10.6-1s-8.44-1.07-8.72-2.18,13-.73,13-2.8S243,435.12,243,434.15s16.47-.81,16.47-2.77c0-2.49-16.57-.73-16.19-2.35.22-1,15.22-.69,15.08-2.63S250,425.3,245,424.88s-10.1-2.49-10.85-4.71,11.12-4.84,9.88-6.5-21.66,5-21.66,5"/><path class="cls-76" d="M194.78,316.65a36.14,36.14,0,0,1,23.51,6.94,31.51,31.51,0,0,1,7.12,7.33c6.16,9,9.08,38.62,6.31,65l-57.07,11.44c3.76,1.54,35.42,10.26,48.65,10.77-7.47,4.15-5,17.44-5,17.44-31-.66-66.53-3.4-72.67-27.81-4.69-18.63-7.3-46.09-7.5-57.38-.28-15.27,7.56-23.53,15.41-27.45s25.63-5.46,25.63-5.46Z"/><path class="cls-77" d="M219.17,254.62c-.13,1.45-.31,2.89-.51,4.3-1.92-7.36-14.48-15.7-28.71-14.4,0,0,0,1.72-2.68,2.2s-3.86-2.86-4.46,0-.59,6.72-3.86,6.72-5.36,2.08-5.65,4.16,5.23,9.56,2.46,11.4c-3.17,2.1-5.46,10-5.46,10s-2.47-18.25-12.3-7.56c-.69,2-1.28,3.94-1.77,5.91-.46-2.86.28-5.09,1.86-6.51a6,6,0,0,1,1.49-1,50.93,50.93,0,0,1-2.38-15,34.61,34.61,0,0,1,1-8.66c3.89-15,23.34-19.4,36-18.53S220.38,240.55,219.17,254.62Z"/><path class="cls-78" d="M164,296.12a43.92,43.92,0,0,0,31.53,19l-.09-1.69-.1-2.08c-9-2.67-19.86-8.93-32.46-22l.27.31a44.29,44.29,0,0,1,.77,5.61C164,295.53,164,295.82,164,296.12Z"/><path class="cls-79" d="M164.6,275.43s-2.93-3.46-4.59-.54,1.62,7.45,1.62,7.45Z"/><path class="cls-48" d="M167.55,330.31s27.58,20,34.33,18.76,1.5-27,1.5-27"/><path class="cls-80" d="M238.72,308.95c2.84,6.18,1,14.56-2.91,19.08-3.46,4-2.77,8.79-5.61,11.25-5.75-8.81-11-16.67-20.08-20.21,16.32-17.92-6.54-50.27-8.23-56.8l-31.63,20.08s9.4,23.29-3.34,40.05c-2.69,3.54-14.44,26.12-26.63,20.34-7.28-3.46-2.51-10.52-4.24-12.43-5.93-6.55-12.37-13.49-9.34-18.89s1.89-2.84-1-6.14-1.59-8,.61-11-3-12,.16-15.5c6.8-7.48,5.29-15,4.47-17.62s1.61-5,3.53-6.33,2.47-4.7,2.11-10.08,4.29-7.31,5.67-8.7c3.58-3.63,3.39-5.28,4.37-9.19,1.75-7,13.21-7,19.76-7.1s4.65-9.31,19.87-5.63c2.43.59,5.72,5.73,13.82,4.06,8.54-1.77,18.22,6.39,17.65,10.45s10.64,4.33,11.47,17.08c0,.33.05.7.08,1.1a23.71,23.71,0,0,0,3.44,10.3,22.68,22.68,0,0,1,1.91,4c1.87,5.18-1.45,10.38,0,14.91s4,11.31,1.13,18C232.45,301.67,237.43,306.14,238.72,308.95Z"/><path class="cls-81" d="M219.87,291.46c-2.83,12.31-14.24,17.91-21.63,19.48-.71.14-1.38.25-2,.32-.3,0-.58.08-.85.1l.1,2.08.19,2.65.16,2.35,5.26,22.06a3.1,3.1,0,0,1-4.79,3.26c-10.55-7.36-29.19-17.64-29.4-21.36,0,0-1.09-5.67-2.58-22.91-.09-1.08-.18-2.2-.28-3.37,0-.3-.06-.59-.08-.87,0-.58-.13-1.28-.21-2a26,26,0,0,0-.56-3.64,2.61,2.61,0,0,1-.27-.31c-4.13-4.66-6.2-8.75-6.7-12,.28-1.14.6-2.28.95-3.41a8.76,8.76,0,0,1,3.66-5c7.48-4.64,9.46,10,9.46,10s25.28-5.23,31.53-34.76a12.43,12.43,0,0,1,9.64,2.12c3,2.08,5.78,5.88,7.19,12.6h0c-.57,4-1.26,7.87-.93,11.5C218.16,275.37,221.86,282.88,219.87,291.46Z"/><path class="cls-82" d="M211.47,246.32c-3.88,10.1-10,19.51-22.26,26.46-13.5,7.68-18.91,6.18-18.91,6.18s25.28-5.23,31.53-34.76A12.43,12.43,0,0,1,211.47,246.32Z"/><path class="cls-83" d="M195.49,313.44l.19,2.65c-9.56-1.14-21-5.08-31.35-16.6-.09-1.08-.18-2.2-.28-3.37,0-.3-.06-.59-.08-.87,0-.58-.13-1.28-.21-2,12.64,10.21,23.39,15.54,32.48,18-.3,0-.58.08-.85.1Z"/><path class="cls-84" d="M127.56,481.09c0,6.33-13.44,11.47-30,11.47s-30-5.13-30-11.47c0-15.14,13.44-11.47,30-11.47S127.56,465.95,127.56,481.09Z"/><ellipse class="cls-85" cx="97.55" cy="476.95" rx="30.01" ry="11.47"/><polyline class="cls-86" points="97.55 476.95 73.67 436.28 99.13 393.19"/><path class="cls-87" d="M137.19,392.35l-26.67,25.2L92.18,394.06a15.61,15.61,0,0,1,1.58-21h0a15.61,15.61,0,0,1,21-.39Z"/></g></g></svg>