<svg height="48" viewBox="0 0 48 48" width="48" xmlns="http://www.w3.org/2000/svg" xmlns:xlink="http://www.w3.org/1999/xlink"><linearGradient id="a" x1="14.458885%" x2="50%" y1="3.249187%" y2="100%"><stop offset="0" stop-color="#ffe6b9"/><stop offset="1" stop-color="#f79b1c"/></linearGradient><g fill="none"><path d="m21 18v18c0 1.6568542-1.3431458 3-3 3s-3-1.3431458-3-3v-18h-5.34782609c-2.01703995 0-3.65217391-1.5670034-3.65217391-3.5s1.63513396-3.5 3.65217391-3.5h16.69565219c2.0170399 0 3.6521739 1.5670034 3.6521739 3.5s-1.635134 3.5-3.6521739 3.5z" fill="url(#a)"/><path d="m38 39h2.5c.8284271 0 1.5.6715729 1.5 1.5s-.6715729 1.5-1.5 1.5h-8c-.8284271 0-1.5-.6715729-1.5-1.5s.6715729-1.5 1.5-1.5h2.5v-30h-2.5c-.8284271 0-1.5-.67157288-1.5-1.5s.6715729-1.5 1.5-1.5h8c.8284271 0 1.5.67157288 1.5 1.5s-.6715729 1.5-1.5 1.5h-2.5z" fill="#ff7b2b"/></g></svg>