<svg height="48" viewBox="0 0 48 48" width="48" xmlns="http://www.w3.org/2000/svg" xmlns:xlink="http://www.w3.org/1999/xlink"><linearGradient id="a" x1="17.129014%" x2="86.619971%" y1="24.013177%" y2="77.40865%"><stop offset="0" stop-color="#ffceeb"/><stop offset="1" stop-color="#fff"/></linearGradient><g fill="none"><path d="m19 8h14c2.209139 0 4 1.790861 4 4v15c0 2.209139-1.790861 4-4 4h-25c-2.209139 0-4-1.790861-4-4v-19c0-2.209139 1.790861-4 4-4h7c2.209139 0 4 1.790861 4 4z" fill="url(#a)"/><path d="m26 21h14c2.209139 0 4 1.790861 4 4v15c0 2.209139-1.790861 4-4 4h-25c-2.209139 0-4-1.790861-4-4v-19c0-2.209139 1.790861-4 4-4h7c2.209139 0 4 1.790861 4 4z" fill="#ff4a9e"/></g></svg>