<svg width="18" height="18" viewBox="0 0 18 18" fill="black" xmlns="http://www.w3.org/2000/svg">
<path d="M17.1915 8.74411L0.85361 0.552706C0.787203 0.519503 0.711031 0.511691 0.638766 0.529269C0.47275 0.570284 0.369234 0.738253 0.41025 0.906222L2.09384 7.78513C2.11923 7.88864 2.19541 7.97263 2.29697 8.00583L5.18173 8.99606L2.29892 9.9863C2.19736 10.0215 2.12119 10.1035 2.09775 10.207L0.41025 17.0957C0.392672 17.1679 0.400485 17.2441 0.433688 17.3086C0.50986 17.4629 0.69736 17.5254 0.85361 17.4492L17.1915 9.30466C17.252 9.27536 17.3009 9.22458 17.3321 9.16599C17.4083 9.00974 17.3458 8.82224 17.1915 8.74411ZM2.33603 15.1386L3.31845 11.123L9.08408 9.1445C9.129 9.12888 9.16611 9.09372 9.18174 9.04685C9.20908 8.96482 9.16611 8.87692 9.08408 8.84763L3.31845 6.87106L2.33994 2.87107L14.6056 9.02145L2.33603 15.1386Z" fill="white"/>
<path d="M2.33603 15.1386L3.31845 11.123L9.08408 9.1445C9.129 9.12888 9.16611 9.09372 9.18174 9.04685C9.20908 8.96482 9.16611 8.87692 9.08408 8.84763L3.31845 6.87106L2.33994 2.87107L14.6056 9.02145L2.33603 15.1386Z" fill="white"/>
</svg>
